<?xml version="1.0" encoding="UTF-8" standalone="no"?>
<!-- Created with Inkscape (http://www.inkscape.org/) -->

<svg
   xmlns:dc="http://purl.org/dc/elements/1.1/"
   xmlns:cc="http://creativecommons.org/ns#"
   xmlns:rdf="http://www.w3.org/1999/02/22-rdf-syntax-ns#"
   xmlns:svg="http://www.w3.org/2000/svg"
   xmlns="http://www.w3.org/2000/svg"
   xmlns:sodipodi="http://sodipodi.sourceforge.net/DTD/sodipodi-0.dtd"
   xmlns:inkscape="http://www.inkscape.org/namespaces/inkscape"
   width="87.859375"
   height="81.765625"
   id="svg2"
   version="1.1"
   inkscape:version="0.48+devel r12849"
   viewBox="0 0 87.859375 81.765626"
   sodipodi:docname="qplot.svg">
  <defs
     id="defs4" />
  <sodipodi:namedview
     id="base"
     pagecolor="#ffffff"
     bordercolor="#666666"
     borderopacity="1.0"
     inkscape:pageopacity="0.0"
     inkscape:pageshadow="2"
     inkscape:zoom="2"
     inkscape:cx="35.81027"
     inkscape:cy="36.304778"
     inkscape:document-units="px"
     inkscape:current-layer="layer1"
     showgrid="false"
     fit-margin-top="1"
     fit-margin-left="1"
     fit-margin-right="1"
     fit-margin-bottom="1"
     inkscape:window-width="1440"
     inkscape:window-height="810"
     inkscape:window-x="76"
     inkscape:window-y="328"
     inkscape:window-maximized="0" />
  <metadata
     id="metadata7">
    <rdf:RDF>
      <cc:Work
         rdf:about="">
        <dc:format>image/svg+xml</dc:format>
        <dc:type
           rdf:resource="http://purl.org/dc/dcmitype/StillImage" />
        <dc:title></dc:title>
      </cc:Work>
    </rdf:RDF>
  </metadata>
  <g
     inkscape:label="Layer 1"
     inkscape:groupmode="layer"
     id="layer1"
     transform="translate(-78.95536,-271.81418)">
    <g
       style="font-size:80px;font-style:normal;font-variant:normal;font-weight:normal;font-stretch:normal;text-align:start;line-height:125%;letter-spacing:0px;word-spacing:0px;writing-mode:lr-tb;text-anchor:start;fill:#000000;fill-opacity:1;stroke:none;font-family:Cataneo BT;-inkscape-font-specification:'Cataneo BT, Normal'"
       id="text4062">
      <path
         d="m 110.18973,320.50949 q 6.83594,8.51563 13.39844,13.125 6.5625,4.64844 11.79687,4.64844 0.85938,0 1.79688,-0.15625 0.97656,-0.15625 2.42187,-0.58594 l 0.50781,1.52344 q -2.73437,1.17187 -5.42968,1.79687 -2.65625,0.625 -4.96094,0.625 -5.78125,0 -12.26563,-4.21875 -6.44531,-4.21875 -14.88281,-13.55468 -1.95312,0.54687 -3.75,0.78125 -1.757812,0.27343 -3.515625,0.27343 -7.34375,0 -11.367187,-4.72656 -3.984375,-4.76562 -3.984375,-13.51562 0,-6.17188 1.835937,-11.91407 1.875,-5.78125 5.351563,-10.27343 4.21875,-5.39063 10.117187,-8.4375 5.89844,-3.08594 12.03125,-3.08594 7.8125,0 11.99219,4.6875 4.17969,4.64844 4.17969,13.39844 0,9.57031 -3.94532,17.22656 -3.94531,7.65625 -11.32812,12.38281 z m -5.11719,-44.33594 q -7.460937,0 -11.992187,7.57813 -4.492188,7.53906 -4.492188,20.19531 0,8.82813 2.8125,13.16406 2.851563,4.29688 8.632815,4.29688 7.61719,0 12.10937,-7.34375 4.53125,-7.34375 4.53125,-19.80469 0,-9.29687 -2.8125,-13.67187 -2.8125,-4.41407 -8.78906,-4.41407 z"
         style=""
         id="path4105" />
      <path
         d="m 139.44754,320.58762 q 1.13281,0.3125 2.1875,0.46875 1.05469,0.15625 2.03125,0.15625 3.51563,0 5.89844,-1.5625 2.42187,-1.5625 4.17969,-4.96094 1.67968,-3.28125 2.69531,-8.00781 1.05469,-4.76563 1.05469,-9.14063 0,-1.99219 -0.46875,-2.85156 -0.42969,-0.89844 -1.44532,-0.89844 -3.35937,0 -8.86718,8.20313 -5.46875,8.16406 -7.26563,18.59375 z m 2.30469,-14.96094 q 5.50781,-8.08594 11.13281,-13.00781 5.625,-4.92188 9.02344,-4.92188 1.79687,0 2.85156,1.79688 1.05469,1.79687 1.05469,4.84375 0,6.36718 -2.1875,12.10937 -2.1875,5.70313 -6.28906,9.92188 -3.71094,3.86718 -8.32032,6.09375 -4.57031,2.22656 -8.86718,2.22656 0,0 -0.46875,-0.0781 -0.46875,-0.0391 -0.89844,-0.0391 -1.875,12.69531 -9.33594,20.35156 -7.46094,7.65625 -17.61719,7.65625 -3.16406,0 -4.92187,-1.17187 -1.79688,-1.17188 -1.79688,-3.20313 0,-0.85937 0.42969,-1.75781 0.39063,-0.85937 1.17188,-1.75781 2.38281,1.79687 5.19531,2.77344 2.77344,0.97656 5.50781,0.97656 5.35156,0 8.4375,-3.98438 3.04688,-3.94531 5.15625,-13.94531 2.22656,-10.39062 3.55469,-20.3125 1.32812,-9.92187 1.32812,-13.59375 0,-1.05469 -0.23437,-1.5625 -0.23438,-0.54687 -0.70313,-0.54687 -0.625,0 -1.83593,0.9375 -1.17188,0.89843 -2.5,2.42187 l -1.09375,-1.09375 q 3.78906,-4.29687 6.875,-6.67969 3.125,-2.38281 4.96093,-2.38281 1.21094,0 1.83594,0.89844 0.625,0.89844 0.625,2.73437 0,1.875 -0.54687,5.70313 -0.54688,3.78906 -1.52344,8.59375 z"
         style=""
         id="path4107" />
    </g>
  </g>
</svg>
