<?xml version="1.0" encoding="UTF-8" standalone="no"?>
<svg viewBox="0 0 270 270"
 xmlns="http://www.w3.org/2000/svg" xmlns:xlink="http://www.w3.org/1999/xlink"  version="1.2" baseProfile="tiny">
<title>Qt Svg Document</title>
<desc>Generated with Qt</desc>
<defs>
</defs>
<g fill="none" stroke="black" stroke-width="1" fill-rule="evenodd" stroke-linecap="square" stroke-linejoin="bevel" >

<g fill="none" stroke="#000000" stroke-opacity="1" stroke-width="1" stroke-linecap="square" stroke-linejoin="bevel" transform="matrix(0.0416667,0,0,0.0416667,0,0)"
font-family="Helvetica" font-size="300" font-weight="400" font-style="normal" 
>
<polyline fill="none" vector-effect="non-scaling-stroke" points="0,3239.43 104.516,2915.89 209.032,2595.58 313.548,2281.71 418.065,1977.4 522.581,1685.7 627.097,1409.53 731.613,1151.64 836.129,914.615 940.645,700.816 1045.16,512.381 1149.68,351.195 1254.19,218.867 1358.71,116.719 1463.23,45.7729 1567.74,6.73641 1672.26,0 1776.77,25.6309 1881.29,83.3731 1985.81,172.65 2090.32,292.568 2194.84,441.931 2299.35,619.246 2403.87,822.741 2508.39,1050.38 2612.9,1299.9 2717.42,1568.79 2821.94,1854.37 2926.45,2153.8 3030.97,2464.07 3135.48,2782.09 3240,3104.68 3344.52,3428.61 3449.03,3750.66 3553.55,4067.59 3658.06,4376.26 3762.58,4673.56 3867.1,4956.53 3971.61,5222.35 4076.13,5468.36 4180.65,5692.09 4285.16,5891.32 4389.68,6064.05 4494.19,6208.56 4598.71,6323.4 4703.23,6407.43 4807.74,6459.8 4912.26,6480 5016.77,6467.82 5121.29,6423.38 5225.81,6347.13 5330.32,6239.83 5434.84,6102.55 5539.35,5936.66 5643.87,5743.82 5748.39,5525.96 5852.9,5285.25 5957.42,5024.1 6061.94,4745.12 6166.45,4451.1 6270.97,4144.97 6375.48,3829.79 6480,3508.71 " />
</g>
</g>
</svg>
