<?xml version="1.0" encoding="UTF-8" standalone="no"?>
<!-- Created with Inkscape (http://www.inkscape.org/) -->

<svg
   width="128"
   height="128"
   id="svg2"
   version="1.1"
   inkscape:version="1.3.2 (1:1.3.2+202311252150+091e20ef0f)"
   viewBox="0 0 128 128"
   sodipodi:docname="qplot.svg"
   inkscape:export-filename="../src/qplot.png"
   inkscape:export-xdpi="384"
   inkscape:export-ydpi="384"
   xmlns:inkscape="http://www.inkscape.org/namespaces/inkscape"
   xmlns:sodipodi="http://sodipodi.sourceforge.net/DTD/sodipodi-0.dtd"
   xmlns="http://www.w3.org/2000/svg"
   xmlns:svg="http://www.w3.org/2000/svg"
   xmlns:rdf="http://www.w3.org/1999/02/22-rdf-syntax-ns#"
   xmlns:cc="http://creativecommons.org/ns#"
   xmlns:dc="http://purl.org/dc/elements/1.1/">
  <defs
     id="defs4" />
  <sodipodi:namedview
     id="base"
     pagecolor="#ffffff"
     bordercolor="#666666"
     borderopacity="1.0"
     inkscape:pageopacity="0.0"
     inkscape:pageshadow="2"
     inkscape:zoom="2"
     inkscape:cx="36"
     inkscape:cy="36.5"
     inkscape:document-units="px"
     inkscape:current-layer="layer1"
     showgrid="false"
     fit-margin-top="1"
     fit-margin-left="1"
     fit-margin-right="1"
     fit-margin-bottom="1"
     inkscape:window-width="1440"
     inkscape:window-height="810"
     inkscape:window-x="76"
     inkscape:window-y="242"
     inkscape:window-maximized="0"
     inkscape:showpageshadow="2"
     inkscape:pagecheckerboard="0"
     inkscape:deskcolor="#d1d1d1" />
  <metadata
     id="metadata7">
    <rdf:RDF>
      <cc:Work
         rdf:about="">
        <dc:format>image/svg+xml</dc:format>
        <dc:type
           rdf:resource="http://purl.org/dc/dcmitype/StillImage" />
      </cc:Work>
    </rdf:RDF>
  </metadata>
  <g
     inkscape:label="Layer 1"
     inkscape:groupmode="layer"
     id="layer1"
     transform="translate(-78.95536,-271.81418)">
    <g
       style="font-style:normal;font-variant:normal;font-weight:normal;font-stretch:normal;font-size:80px;line-height:125%;font-family:'Cataneo BT';-inkscape-font-specification:'Cataneo BT, Normal';text-align:start;letter-spacing:0px;word-spacing:0px;writing-mode:lr-tb;text-anchor:start;fill:#000000;fill-opacity:1;stroke:none"
       id="text4062"
       transform="translate(4.1600085,8.3361)">
      <path
         d="m 121.39499,338.18601 q 9.36943,11.67163 18.36408,17.9893 8.99465,6.37121 16.16894,6.37121 1.17788,0 2.46283,-0.21416 1.33849,-0.21416 3.31945,-0.8031 l 0.69601,2.08805 q -3.74776,1.60618 -7.44199,2.46281 -3.64069,0.85664 -6.79953,0.85664 -7.92386,0 -16.81144,-5.78228 -8.83402,-5.78227 -20.39857,-18.57822 -2.67697,0.74955 -5.1398,1.07079 -2.40928,0.37477 -4.81856,0.37477 -10.065444,0 -15.58002,-6.47829 -5.461037,-6.53182 -5.461037,-18.52468 0,-8.45926 2.51636,-16.32959 2.569899,-7.92385 7.334923,-14.08089 5.782274,-7.38847 13.866754,-11.56455 8.08448,-4.22963 16.49019,-4.22963 10.70791,0 16.43665,6.42475 5.72874,6.37121 5.72874,18.36407 0,13.1172 -5.40751,23.61095 -5.40749,10.49376 -15.52647,16.97205 z m -7.01369,-60.76743 q -10.22606,0 -16.436649,10.38669 -6.157052,10.33313 -6.157052,27.67996 0,12.09995 3.85485,18.04283 3.90839,5.88936 11.832251,5.88936 10.44022,0 16.59726,-10.06544 6.21059,-10.06544 6.21059,-27.14457 0,-12.74241 -3.85485,-18.73884 -3.85485,-6.04999 -12.0464,-6.04999 z"
         id="path4105"
         style="stroke-width:0.999999" />
      <path
         d="m 161.49613,338.29309 q 1.55264,0.42832 2.99822,0.64248 1.44557,0.21416 2.78405,0.21416 4.81857,0 8.08448,-2.14159 3.31945,-2.14158 5.72874,-6.79953 2.30219,-4.49732 3.69423,-10.97561 1.44557,-6.53183 1.44557,-12.52826 0,-2.73053 -0.64247,-3.90839 -0.58894,-1.23141 -1.98098,-1.23141 -4.60439,0 -12.15347,11.24331 -7.49554,11.18977 -9.95837,25.48484 z m 3.15884,-20.50566 q 7.54908,-11.08269 15.25877,-17.82867 7.7097,-6.746 12.36765,-6.746 2.46281,0 3.90839,2.46283 1.44557,2.46281 1.44557,6.63891 0,8.72694 -2.99822,16.59726 -2.99821,7.81678 -8.61987,13.59906 -5.08626,5.30041 -11.40394,8.35217 -6.26412,3.05176 -12.15347,3.05176 0,0 -0.64248,-0.10705 -0.64247,-0.0536 -1.23141,-0.0536 -2.5699,17.40036 -12.79596,27.89412 -10.22606,10.49375 -24.14636,10.49375 -4.3367,0 -6.74598,-1.60618 -2.46282,-1.60619 -2.46282,-4.39025 0,-1.17786 0.58894,-2.40928 0.5354,-1.17786 1.60619,-2.40927 3.26591,2.46281 7.12076,3.80131 3.80131,1.33849 7.54908,1.33849 7.33492,0 11.56455,-5.46105 4.17609,-5.40749 7.06722,-19.11362 3.05175,-14.24152 4.87211,-27.84058 1.82033,-13.59905 1.82033,-18.63178 0,-1.44557 -0.32123,-2.14158 -0.32124,-0.74955 -0.96371,-0.74955 -0.85664,0 -2.51635,1.28495 -1.6062,1.2314 -3.42654,3.31945 l -1.49911,-1.49911 q 5.19334,-5.88935 9.42297,-9.15527 4.28317,-3.26591 6.79952,-3.26591 1.65973,0 2.51636,1.23141 0.85663,1.23142 0.85663,3.74777 0,2.5699 -0.74954,7.81678 -0.74957,5.19334 -2.08805,11.77871 z"
         id="path4107"
         style="stroke-width:0.999999" />
    </g>
  </g>
</svg>
